<?xml version="1.0" encoding="UTF-8" standalone="no"?>
<svg width="345px" height="104px" viewBox="0 0 345 104" version="1.1" xmlns="http://www.w3.org/2000/svg" xmlns:xlink="http://www.w3.org/1999/xlink" xmlns:sketch="http://www.bohemiancoding.com/sketch/ns">
    <!-- Generator: Sketch 3.2.2 (9983) - http://www.bohemiancoding.com/sketch -->
    <title>logo</title>
    <desc>Created with Sketch.</desc>
    <defs></defs>
    <g id="Page-1" stroke="none" stroke-width="1" fill="none" fill-rule="evenodd" sketch:type="MSPage">
        <g id="idealogue-site-Projects-Open" sketch:type="MSArtboardGroup" transform="translate(-264.000000, -237.000000)" fill="#184D6A">
            <g id="Imported-Layers" sketch:type="MSLayerGroup" transform="translate(250.000000, 228.000000)">
                <path d="M51.5460553,89.3382667 L48.8519347,89.3382667 C48.536407,89.3382667 48.2798241,89.0817333 48.2798241,88.7662667 L48.2798241,31.7361333 C48.2798241,31.4189333 48.536407,31.1624 48.8519347,31.1624 L51.5460553,31.1624 C51.8615829,31.1624 52.1181658,31.4189333 52.1181658,31.7361333 L52.1181658,88.7662667 C52.1181658,89.0817333 51.8615829,89.3382667 51.5460553,89.3382667" id="Fill-1" sketch:type="MSShapeGroup"></path>
                <path d="M39.0827136,34.4245333 L39.0827136,31.7326667 C39.0827136,31.4154667 39.3392965,31.1589333 39.6565578,31.1589333 L60.271608,31.1589333 C60.5871357,31.1589333 60.8437186,31.4154667 60.8437186,31.7326667 L60.8437186,34.4245333 C60.8437186,34.74 60.5871357,34.9965333 60.271608,34.9965333 L39.6565578,34.9965333 C39.3392965,34.9965333 39.0827136,34.74 39.0827136,34.4245333" id="Fill-2" sketch:type="MSShapeGroup"></path>
                <path d="M39.0827136,88.7697333 L39.0827136,86.0778667 C39.0827136,85.7606667 39.3392965,85.5041333 39.6565578,85.5041333 L60.271608,85.5041333 C60.5871357,85.5041333 60.8437186,85.7606667 60.8437186,86.0778667 L60.8437186,88.7697333 C60.8437186,89.0869333 60.5871357,89.3417333 60.271608,89.3417333 L39.6565578,89.3417333 C39.3392965,89.3417333 39.0827136,89.0869333 39.0827136,88.7697333" id="Fill-3" sketch:type="MSShapeGroup"></path>
                <path d="M126.173543,34.6828 L126.173543,31.8956 C126.173543,31.5870667 125.923894,31.3374667 125.615302,31.3374667 L106.654171,31.3374667 C106.345578,31.3374667 106.09593,31.5870667 106.09593,31.8956 L106.09593,88.7697333 C106.09593,89.0782667 106.345578,89.3278667 106.654171,89.3278667 L125.337915,89.3278667 C125.644774,89.3278667 125.894422,89.0782667 125.894422,88.7697333 L125.894422,85.9825333 C125.894422,85.674 125.644774,85.4244 125.337915,85.4244 L110.558392,85.4244 C110.249799,85.4244 110.000151,85.1748 110.000151,84.8662667 L110.000151,63.3989333 C110.000151,63.0921333 110.249799,62.8425333 110.558392,62.8425333 L121.433693,62.8425333 C121.740553,62.8425333 121.990201,62.5929333 121.990201,62.2844 L121.990201,59.4972 C121.990201,59.1886667 121.740553,58.9390667 121.433693,58.9390667 L110.558392,58.9390667 C110.249799,58.9390667 110.000151,58.6894667 110.000151,58.3809333 L110.000151,35.7990667 C110.000151,35.4905333 110.249799,35.2409333 110.558392,35.2409333 L125.615302,35.2409333 C125.923894,35.2409333 126.173543,34.9913333 126.173543,34.6828" id="Fill-4" sketch:type="MSShapeGroup"></path>
                <path d="M332.457538,34.6481333 L332.457538,31.9302667 C332.457538,31.6026667 332.192286,31.3374667 331.864623,31.3374667 L312.972839,31.3374667 C312.645176,31.3374667 312.379925,31.6026667 312.379925,31.9302667 L312.379925,88.7350667 C312.379925,89.0626667 312.645176,89.3278667 312.972839,89.3278667 L331.585503,89.3278667 C331.913166,89.3278667 332.178417,89.0626667 332.178417,88.7350667 L332.178417,86.0172 C332.178417,85.6896 331.913166,85.4244 331.585503,85.4244 L316.875327,85.4244 C316.549397,85.4244 316.284146,85.1592 316.284146,84.8316 L316.284146,63.4336 C316.284146,63.1077333 316.549397,62.8425333 316.875327,62.8425333 L327.681281,62.8425333 C328.008945,62.8425333 328.274196,62.5773333 328.274196,62.2497333 L328.274196,59.5318667 C328.274196,59.2042667 328.008945,58.9390667 327.681281,58.9390667 L316.875327,58.9390667 C316.549397,58.9390667 316.284146,58.6738667 316.284146,58.3462667 L316.284146,35.8337333 C316.284146,35.5061333 316.549397,35.2409333 316.875327,35.2409333 L331.864623,35.2409333 C332.192286,35.2409333 332.457538,34.9757333 332.457538,34.6481333" id="Fill-5" sketch:type="MSShapeGroup"></path>
                <path d="M190.317538,89.2845333 L171.614724,89.2845333 C171.306131,89.2845333 171.054749,89.0332 171.054749,88.7246667 L171.054749,31.9337333 C171.054749,31.6234667 171.306131,31.3738667 171.614724,31.3738667 L174.334849,31.3738667 C174.645176,31.3738667 174.894824,31.6234667 174.894824,31.9337333 L174.894824,84.8853333 C174.894824,85.1938667 175.146206,85.4452 175.456533,85.4452 L190.317538,85.4452 C190.627864,85.4452 190.877513,85.6965333 190.877513,86.0050667 L190.877513,88.7246667 C190.877513,89.0332 190.627864,89.2845333 190.317538,89.2845333" id="Fill-6" sketch:type="MSShapeGroup"></path>
                <path d="M84.6365829,89.2724 L72.7314824,89.2724 C72.4176884,89.2724 72.1645729,89.0193333 72.1645729,88.7056 L72.1645729,31.6737333 C72.1645729,31.36 72.4176884,31.1069333 72.7314824,31.1069333 L83.036407,31.1069333 C90.558794,31.1069333 94.8704271,39.3766667 94.8704271,53.798 L94.8704271,59.7156 C94.8704271,74.0156 94.0729397,89.2724 84.6365829,89.2724 L84.6365829,89.2724 Z M76.0046482,84.8662667 C76.0046482,85.1782667 76.2577638,85.4313333 76.5715578,85.4313333 L84.6365829,85.4313333 C91.0303518,85.4313333 91.0303518,67.4081333 91.0303518,59.7156 L91.0303518,53.798 C91.0303518,44.6841333 88.9343467,34.9445333 83.036407,34.9445333 L76.5715578,34.9445333 C76.2577638,34.9445333 76.0046482,35.1976 76.0046482,35.5096 L76.0046482,84.8662667 L76.0046482,84.8662667 Z" id="Fill-7" sketch:type="MSShapeGroup"></path>
                <path d="M159.234598,89.3157333 L162.018869,89.2845333 C162.376005,89.2793333 162.641256,88.9482667 162.564975,88.5981333 L150.193518,31.7829333 C150.136307,31.5229333 149.905729,31.3374667 149.640477,31.3374667 L146.882211,31.3374667 C146.615226,31.3374667 146.382915,31.5264 146.329171,31.7898667 L134.652915,88.6484 C134.580101,89.0002667 134.847085,89.3278667 135.205955,89.3278667 L137.941683,89.3278667 C138.210402,89.3278667 138.44098,89.1389333 138.494724,88.8772 L142.504698,69.4274667 C142.560176,69.164 142.790754,68.9750667 143.059472,68.9750667 L153.877563,68.9750667 C154.142814,68.9750667 154.373392,69.1605333 154.428869,69.4205333 L158.676357,88.8702667 C158.733568,89.132 158.965879,89.3192 159.234598,89.3157333 L159.234598,89.3157333 Z M143.529296,64.3921333 L147.764648,43.8556 C147.887739,43.2576 148.740704,43.2524 148.870729,43.8486667 L153.34706,64.3869333 C153.425075,64.7388 153.156357,65.0716 152.795754,65.0716 L144.082337,65.0716 C143.723467,65.0716 143.456482,64.744 143.529296,64.3921333 L143.529296,64.3921333 Z" id="Fill-8" sketch:type="MSShapeGroup"></path>
                <path d="M220.190377,69.4881333 L220.190377,77.3384 C220.190377,82.2766667 216.183869,86.2997333 211.237714,86.2997333 L210.731482,86.2997333 C205.792261,86.2997333 201.768417,82.2766667 201.768417,77.3384 L201.768417,43.0374667 C201.768417,38.094 205.792261,34.0830667 210.731482,34.0830667 L211.237714,34.0830667 C216.183869,34.0830667 220.190377,38.094 220.190377,43.0374667 L220.190377,69.4881333 L224.03392,69.4881333 L224.03392,43.0374667 C224.03392,35.9776 218.290276,30.2454667 211.237714,30.2454667 L210.731482,30.2454667 C203.670251,30.2454667 197.935276,35.9776 197.935276,43.0374667 L197.935276,77.3384 C197.935276,84.3930667 203.670251,90.1338667 210.731482,90.1338667 L211.237714,90.1338667 C218.290276,90.1338667 224.03392,84.3930667 224.03392,77.3384 L224.03392,69.4881333" id="Fill-9" sketch:type="MSShapeGroup"></path>
                <path d="M248.624271,90.1338667 L246.933945,90.1338667 C239.872714,90.1338667 234.137739,84.3930667 234.137739,77.3384 L234.137739,43.5956 C234.137739,36.222 240.117161,30.2454667 247.492186,30.2454667 L248.624271,30.2454667 C255.675101,30.2454667 261.420477,35.9776 261.420477,43.0374667 L261.420477,46.9496 C261.420477,47.2581333 261.169095,47.5077333 260.860503,47.5077333 L258.135176,47.5077333 C257.826583,47.5077333 257.576935,47.2581333 257.576935,46.9496 L257.576935,43.5956 C257.576935,38.3418667 253.315578,34.0830667 248.060829,34.0830667 L246.933945,34.0830667 C241.99299,34.0830667 237.970879,38.094 237.970879,43.0374667 L237.970879,76.7802667 C237.970879,82.0374667 242.23397,86.2997333 247.492186,86.2997333 L248.624271,86.2997333 C253.568693,86.2997333 257.576935,82.2766667 257.576935,77.3384 L257.576935,63.7854667 C257.576935,63.4786667 257.325553,63.2273333 257.018693,63.2273333 L248.067764,63.2273333 C247.759171,63.2273333 247.509523,62.9777333 247.509523,62.6692 L247.509523,59.9530667 C247.509523,59.6445333 247.759171,59.3949333 248.067764,59.3949333 L260.860503,59.3949333 C261.169095,59.3949333 261.420477,59.6445333 261.420477,59.9530667 L261.420477,77.3384 C261.420477,84.3930667 255.675101,90.1338667 248.624271,90.1338667" id="Fill-10" sketch:type="MSShapeGroup"></path>
                <path d="M296.062638,31.3738667 C295.754045,31.3738667 295.502663,31.6234667 295.502663,31.9337333 L295.502663,77.3384 C295.502663,82.2766667 291.496156,86.2997333 286.55,86.2997333 L285.419648,86.2997333 C280.161432,86.2997333 275.896608,82.0374667 275.896608,76.7785333 L275.896608,31.9337333 C275.896608,31.6234667 275.64696,31.3738667 275.336633,31.3738667 L272.625176,31.3738667 C272.314849,31.3738667 272.063467,31.6234667 272.063467,31.9337333 L272.063467,77.3384 C272.063467,84.3930667 277.798442,90.1338667 284.859673,90.1338667 L286.55,90.1338667 C293.602563,90.1338667 299.346206,84.3930667 299.346206,77.3384 L299.346206,31.9337333 C299.346206,31.6234667 299.094824,31.3738667 298.786231,31.3738667 L296.062638,31.3738667" id="Fill-11" sketch:type="MSShapeGroup"></path>
                <path d="M14,9 L359,9 L359,113 L14,113 L14,9 Z M17.4673367,109.533333 L355.532663,109.533333 L355.532663,12.4666667 L17.4673367,12.4666667 L17.4673367,109.533333 Z" id="Fill-12" sketch:type="MSShapeGroup"></path>
            </g>
        </g>
    </g>
</svg>